<svg width="1994" height="476" viewBox="0 0 1994 476" fill="none" xmlns="http://www.w3.org/2000/svg">
<path fill-rule="evenodd" clip-rule="evenodd" d="M0.0953406 316.146L0.000108029 361.777C-0.0368462 379.49 9.40942 395.867 24.7586 404.705L135.494 468.462C150.401 477.046 168.698 477.259 183.801 469.026L295.152 408.333C311.034 399.676 320.918 383.032 320.918 364.944V158.907H320.823L320.917 113.276C320.954 95.5637 311.509 79.1864 296.159 70.3478L185.424 6.59114C170.518 -1.9921 152.22 -2.20564 137.117 6.02612L25.7662 66.7205C9.8833 75.3777 0.000108029 92.0203 0.000108029 110.11V316.146H0.0953406ZM210.394 341.972L161.79 368.464V306.772L210.394 341.972ZM159.128 368.027L111.884 340.826L159.128 306.733V368.027ZM98.8322 158.592V146.299L137.592 118.328L159.128 106.589V149.412C154.728 149.659 150.382 151.136 146.631 153.843L99.1944 188.075L99.2559 158.593L98.8322 158.592ZM222.016 146.442L221.929 188.346L174.319 153.866C170.562 151.145 166.204 149.66 161.79 149.412V107.026L190.087 123.319L222.016 146.442ZM221.808 246.611L221.713 291.817L174.319 257.493C170.562 254.772 166.204 253.287 161.79 253.039V203.145L221.808 246.611ZM159.128 253.039C154.728 253.286 150.382 254.763 146.631 257.47L98.9783 291.858L99.0728 246.445L159.128 203.106V253.039Z" fill="black"/>
<path d="M1825.27 313.933C1813.24 313.933 1802.06 311.96 1791.73 308.013C1781.39 304.067 1772.46 298.054 1764.95 289.973L1772.84 276.443C1781.11 284.148 1789.38 289.786 1797.64 293.356C1806.1 296.738 1815.03 298.43 1824.42 298.43C1835.89 298.43 1845.19 296.175 1852.33 291.665C1859.47 286.967 1863.04 280.296 1863.04 271.652C1863.04 265.826 1861.25 261.41 1857.68 258.404C1854.3 255.209 1849.32 252.672 1842.74 250.793C1836.36 248.726 1828.65 246.565 1819.63 244.31C1809.48 241.491 1800.93 238.578 1793.98 235.572C1787.22 232.377 1782.05 228.431 1778.48 223.733C1775.09 218.847 1773.4 212.552 1773.4 204.847C1773.4 195.264 1775.75 187.371 1780.45 181.17C1785.34 174.781 1791.91 169.989 1800.18 166.794C1808.64 163.412 1818.03 161.721 1828.37 161.721C1839.64 161.721 1849.6 163.506 1858.25 167.076C1866.89 170.647 1873.94 175.627 1879.39 182.016L1870.09 194.982C1864.82 188.969 1858.53 184.553 1851.2 181.734C1844.06 178.727 1836.07 177.224 1827.24 177.224C1821.23 177.224 1815.5 178.069 1810.05 179.761C1804.6 181.264 1800.09 183.895 1796.52 187.653C1793.13 191.224 1791.44 196.203 1791.44 202.592C1791.44 207.854 1792.76 211.988 1795.39 214.995C1798.02 217.814 1801.97 220.257 1807.23 222.324C1812.49 224.203 1818.97 226.27 1826.68 228.525C1837.76 231.532 1847.44 234.632 1855.71 237.827C1863.98 240.833 1870.37 244.78 1874.88 249.665C1879.39 254.551 1881.64 261.41 1881.64 270.242C1881.64 283.96 1876.48 294.671 1866.14 302.376C1855.8 310.08 1842.18 313.933 1825.27 313.933Z" fill="black"/>
<path d="M1689.01 313.933C1676.99 313.933 1665.8 311.96 1655.47 308.013C1645.13 304.067 1636.21 298.054 1628.69 289.973L1636.58 276.443C1644.85 284.148 1653.12 289.786 1661.39 293.356C1669.85 296.738 1678.77 298.43 1688.17 298.43C1699.63 298.43 1708.93 296.175 1716.07 291.665C1723.21 286.967 1726.78 280.296 1726.78 271.652C1726.78 265.826 1725 261.41 1721.43 258.404C1718.05 255.209 1713.07 252.672 1706.49 250.793C1700.1 248.726 1692.39 246.565 1683.37 244.31C1673.23 241.491 1664.68 238.578 1657.72 235.572C1650.96 232.377 1645.79 228.431 1642.22 223.733C1638.84 218.847 1637.15 212.552 1637.15 204.847C1637.15 195.264 1639.5 187.371 1644.19 181.17C1649.08 174.781 1655.66 169.989 1663.93 166.794C1672.38 163.412 1681.78 161.721 1692.11 161.721C1703.39 161.721 1713.35 163.506 1721.99 167.076C1730.64 170.647 1737.68 175.627 1743.13 182.016L1733.83 194.982C1728.57 188.969 1722.27 184.553 1714.94 181.734C1707.8 178.727 1699.82 177.224 1690.99 177.224C1684.97 177.224 1679.24 178.069 1673.79 179.761C1668.34 181.264 1663.83 183.895 1660.26 187.653C1656.88 191.224 1655.19 196.203 1655.19 202.592C1655.19 207.854 1656.5 211.988 1659.13 214.995C1661.76 217.814 1665.71 220.257 1670.97 222.324C1676.23 224.203 1682.72 226.27 1690.42 228.525C1701.51 231.532 1711.19 234.632 1719.45 237.827C1727.72 240.833 1734.11 244.78 1738.62 249.665C1743.13 254.551 1745.39 261.41 1745.39 270.242C1745.39 283.96 1740.22 294.671 1729.88 302.376C1719.55 310.08 1705.92 313.933 1689.01 313.933Z" fill="black"/>
<path d="M1475.37 268.833C1475.37 259.625 1478 251.733 1483.26 245.155C1488.53 238.39 1495.76 233.223 1504.97 229.652C1514.36 225.894 1525.17 224.015 1537.38 224.015C1544.52 224.015 1551.95 224.579 1559.65 225.706C1567.36 226.834 1574.21 228.525 1580.23 230.78V218.377C1580.23 205.975 1576.56 196.109 1569.24 188.781C1561.91 181.452 1551.76 177.788 1538.79 177.788C1530.9 177.788 1523.1 179.291 1515.4 182.298C1507.88 185.116 1499.99 189.344 1491.72 194.982L1484.39 181.452C1493.97 174.875 1503.37 169.989 1512.58 166.794C1521.79 163.412 1531.18 161.721 1540.77 161.721C1558.81 161.721 1573.09 166.888 1583.61 177.224C1594.13 187.559 1599.4 201.841 1599.4 220.069V288C1599.4 290.631 1599.96 292.604 1601.09 293.92C1602.21 295.047 1604 295.705 1606.44 295.893V311.114C1604.38 311.302 1602.59 311.49 1601.09 311.678C1599.58 311.866 1598.46 311.866 1597.7 311.678C1593.01 311.49 1589.44 309.986 1586.99 307.168C1584.55 304.349 1583.23 301.342 1583.05 298.148L1582.77 287.437C1576.19 295.893 1567.64 302.47 1557.11 307.168C1546.59 311.678 1535.88 313.933 1524.98 313.933C1515.59 313.933 1507.03 311.96 1499.33 308.013C1491.81 303.879 1485.89 298.43 1481.57 291.665C1477.44 284.712 1475.37 277.101 1475.37 268.833ZM1573.74 280.108C1575.81 277.477 1577.41 274.94 1578.54 272.497C1579.66 270.054 1580.23 267.893 1580.23 266.014V244.592C1573.84 242.149 1567.17 240.27 1560.22 238.954C1553.45 237.639 1546.59 236.981 1539.64 236.981C1525.92 236.981 1514.83 239.706 1506.38 245.155C1497.92 250.605 1493.69 258.028 1493.69 267.424C1493.69 272.873 1495.1 278.041 1497.92 282.927C1500.74 287.624 1504.87 291.571 1510.32 294.765C1515.77 297.772 1522.16 299.275 1529.49 299.275C1538.7 299.275 1547.25 297.49 1555.14 293.92C1563.22 290.349 1569.42 285.745 1573.74 280.108Z" fill="black"/>
<path d="M1411.26 105.346H1430.42V277.853C1430.42 285.181 1431.74 289.973 1434.37 292.228C1437 294.483 1440.19 295.611 1443.95 295.611C1447.34 295.611 1450.72 295.235 1454.1 294.483C1457.48 293.732 1460.4 292.98 1462.84 292.228L1466.22 307.731C1462.65 309.235 1458.23 310.456 1452.97 311.396C1447.9 312.335 1443.48 312.805 1439.73 312.805C1431.08 312.805 1424.13 310.268 1418.87 305.194C1413.79 300.121 1411.26 293.168 1411.26 284.336V105.346Z" fill="black"/>
<path d="M1319.42 313.933C1308.7 313.933 1298.84 311.96 1289.82 308.013C1280.99 303.879 1273.19 298.242 1266.42 291.101C1259.85 283.96 1254.68 275.786 1250.92 266.578C1247.35 257.37 1245.56 247.598 1245.56 237.263C1245.56 223.357 1248.67 210.673 1254.87 199.21C1261.07 187.747 1269.71 178.633 1280.8 171.868C1291.89 165.103 1304.66 161.721 1319.13 161.721C1332.85 161.721 1344.97 164.915 1355.5 171.304C1366.02 177.506 1373.82 185.962 1378.89 196.673L1360.29 202.592C1356.15 195.076 1350.33 189.25 1342.81 185.116C1335.48 180.794 1327.31 178.633 1318.29 178.633C1308.52 178.633 1299.59 181.17 1291.51 186.244C1283.43 191.318 1276.95 198.27 1272.06 207.102C1267.36 215.934 1265.01 225.988 1265.01 237.263C1265.01 248.35 1267.46 258.404 1272.34 267.424C1277.23 276.443 1283.71 283.678 1291.79 289.128C1299.87 294.389 1308.8 297.02 1318.57 297.02C1324.96 297.02 1331.07 295.893 1336.89 293.638C1342.9 291.383 1348.07 288.376 1352.39 284.618C1356.9 280.672 1359.91 276.443 1361.41 271.933L1380.3 277.571C1377.67 284.524 1373.25 290.819 1367.05 296.457C1361.04 301.906 1353.9 306.228 1345.63 309.423C1337.55 312.429 1328.81 313.933 1319.42 313.933Z" fill="black"/>
<path d="M1234.86 181.169C1222.08 181.545 1210.8 185.115 1201.03 191.88C1191.45 198.645 1184.68 207.947 1180.74 219.786V311.113H1161.57V164.257H1179.61V199.491C1184.68 189.156 1191.35 180.793 1199.62 174.404C1208.08 168.015 1217 164.445 1226.4 163.693C1228.28 163.505 1229.88 163.411 1231.19 163.411C1232.7 163.411 1233.92 163.505 1234.86 163.693V181.169Z" fill="black"/>
<path d="M1059.56 313.933C1049.03 313.933 1039.26 311.96 1030.24 308.013C1021.22 303.879 1013.42 298.336 1006.84 291.383C1000.27 284.242 995.1 276.068 991.342 266.86C987.771 257.652 985.986 247.786 985.986 237.263C985.986 223.545 989.087 210.955 995.288 199.492C1001.68 188.029 1010.42 178.915 1021.5 172.15C1032.59 165.197 1045.18 161.721 1059.27 161.721C1073.74 161.721 1086.33 165.197 1097.04 172.15C1107.94 179.103 1116.49 188.311 1122.7 199.774C1128.9 211.049 1132 223.451 1132 236.981C1132 238.484 1132 239.988 1132 241.491C1132 242.807 1131.9 243.84 1131.72 244.592H1006C1006.94 255.115 1009.85 264.511 1014.74 272.779C1019.81 280.86 1026.29 287.343 1034.19 292.228C1042.27 296.926 1051.01 299.275 1060.4 299.275C1069.98 299.275 1079 296.832 1087.46 291.947C1096.1 287.061 1102.12 280.672 1105.5 272.779L1122.13 277.289C1119.12 284.242 1114.52 290.537 1108.32 296.175C1102.12 301.812 1094.79 306.228 1086.33 309.423C1078.07 312.429 1069.14 313.933 1059.56 313.933ZM1005.44 230.78H1113.96C1113.21 220.069 1110.29 210.673 1105.22 202.592C1100.33 194.512 1093.85 188.217 1085.77 183.707C1077.88 179.009 1069.14 176.66 1059.56 176.66C1049.97 176.66 1041.23 179.009 1033.34 183.707C1025.45 188.217 1018.97 194.606 1013.89 202.874C1009.01 210.955 1006.19 220.257 1005.44 230.78Z" fill="black"/>
<path d="M897.144 313.933C884.93 313.933 873.937 310.738 864.165 304.349C854.581 297.96 846.971 290.067 841.333 280.672V371.153H822.166V164.258H839.36V192.727C845.186 183.519 852.984 176.096 862.756 170.459C872.527 164.633 882.957 161.721 894.044 161.721C904.191 161.721 913.493 163.882 921.949 168.204C930.406 172.338 937.734 177.975 943.935 185.116C950.137 192.257 954.929 200.431 958.311 209.639C961.881 218.659 963.667 228.055 963.667 237.827C963.667 251.545 960.848 264.229 955.21 275.88C949.761 287.343 942.056 296.551 932.097 303.503C922.137 310.456 910.486 313.933 897.144 313.933ZM891.789 297.02C899.869 297.02 907.104 295.423 913.493 292.228C919.882 288.846 925.332 284.336 929.842 278.698C934.54 273.061 938.11 266.766 940.553 259.813C942.996 252.672 944.217 245.343 944.217 237.827C944.217 229.934 942.808 222.418 939.989 215.277C937.358 208.136 933.506 201.841 928.432 196.391C923.359 190.942 917.533 186.62 910.956 183.425C904.379 180.23 897.238 178.633 889.534 178.633C884.648 178.633 879.574 179.573 874.313 181.452C869.051 183.331 863.977 186.056 859.091 189.626C854.394 193.009 850.447 196.861 847.253 201.183C844.058 205.505 842.085 210.109 841.333 214.995V260.095C844.34 267.048 848.38 273.343 853.454 278.98C858.528 284.43 864.353 288.846 870.93 292.228C877.695 295.423 884.648 297.02 891.789 297.02Z" fill="black"/>
<path d="M723.174 313.933C710.959 313.933 699.966 310.738 690.194 304.349C680.611 297.96 673 290.067 667.363 280.672V371.153H648.195V164.258H665.39V192.727C671.215 183.519 679.014 176.096 688.785 170.459C698.557 164.633 708.986 161.721 720.073 161.721C730.221 161.721 739.522 163.882 747.979 168.204C756.435 172.338 763.764 177.975 769.965 185.116C776.166 192.257 780.958 200.431 784.34 209.639C787.911 218.659 789.696 228.055 789.696 237.827C789.696 251.545 786.877 264.229 781.24 275.88C775.79 287.343 768.086 296.551 758.126 303.503C748.167 310.456 736.516 313.933 723.174 313.933ZM717.818 297.02C725.898 297.02 733.133 295.423 739.522 292.228C745.912 288.846 751.361 284.336 755.871 278.698C760.569 273.061 764.139 266.766 766.582 259.813C769.025 252.672 770.247 245.343 770.247 237.827C770.247 229.934 768.837 222.418 766.019 215.277C763.388 208.136 759.535 201.841 754.462 196.391C749.388 190.942 743.563 186.62 736.986 183.425C730.408 180.23 723.268 178.633 715.563 178.633C710.677 178.633 705.604 179.573 700.342 181.452C695.08 183.331 690.007 186.056 685.121 189.626C680.423 193.009 676.477 196.861 673.282 201.183C670.088 205.505 668.114 210.109 667.363 214.995V260.095C670.369 267.048 674.41 273.343 679.483 278.98C684.557 284.43 690.382 288.846 696.959 292.228C703.724 295.423 710.677 297.02 717.818 297.02Z" fill="black"/>
<path d="M522.474 312.523C506.689 312.523 493.347 309.705 482.448 304.067C471.548 298.43 462.904 290.913 456.515 281.517C450.126 271.934 445.428 261.128 442.421 249.102C439.603 237.075 438.193 224.673 438.193 211.894V110.983H457.643V211.894C457.643 222.23 458.676 232.377 460.743 242.337C462.998 252.296 466.569 261.222 471.454 269.115C476.34 277.007 482.917 283.302 491.186 288C499.454 292.51 509.789 294.765 522.192 294.765C534.97 294.765 545.493 292.416 553.762 287.718C562.218 282.833 568.795 276.444 573.493 268.551C578.379 260.659 581.855 251.827 583.922 242.055C585.989 232.095 587.023 222.042 587.023 211.894V110.983H606.754V211.894C606.754 225.236 605.25 238.015 602.244 250.229C599.237 262.444 594.351 273.155 587.586 282.363C581.009 291.571 572.365 298.899 561.654 304.349C550.943 309.799 537.883 312.523 522.474 312.523Z" fill="black"/>
<path d="M1982.11 168.707V123.225H1993.74V168.707H1982.11ZM1982.11 116.889V105.345H1993.74V116.889H1982.11Z" fill="black"/>
<path d="M1929.14 155.253C1929.14 152.302 1929.95 149.727 1931.57 147.528C1933.25 145.271 1935.57 143.535 1938.52 142.32C1941.47 141.105 1944.85 140.497 1948.67 140.497C1950.58 140.497 1952.52 140.642 1954.49 140.931C1956.46 141.22 1958.16 141.683 1959.61 142.32V139.89C1959.61 136.996 1958.74 134.769 1957.01 133.206C1955.33 131.644 1952.81 130.863 1949.46 130.863C1946.97 130.863 1944.59 131.297 1942.34 132.165C1940.08 133.033 1937.71 134.306 1935.22 135.984L1931.49 128.346C1934.5 126.378 1937.56 124.903 1940.69 123.919C1943.87 122.935 1947.2 122.443 1950.67 122.443C1957.15 122.443 1962.19 124.064 1965.77 127.304C1969.42 130.544 1971.24 135.174 1971.24 141.192V155.687C1971.24 156.902 1971.44 157.77 1971.85 158.291C1972.31 158.811 1973.04 159.13 1974.02 159.245V168.706C1972.98 168.88 1972.02 169.025 1971.15 169.14C1970.34 169.256 1969.65 169.314 1969.07 169.314C1966.76 169.314 1964.99 168.793 1963.78 167.752C1962.62 166.71 1961.9 165.437 1961.61 163.932L1961.35 161.589C1959.38 164.135 1956.92 166.102 1953.97 167.491C1951.02 168.88 1948.01 169.574 1944.94 169.574C1941.93 169.574 1939.21 168.967 1936.78 167.752C1934.41 166.478 1932.53 164.771 1931.14 162.63C1929.81 160.432 1929.14 157.972 1929.14 155.253ZM1957.44 157.596C1958.08 156.902 1958.6 156.207 1959 155.513C1959.41 154.819 1959.61 154.182 1959.61 153.604V149.003C1958.22 148.425 1956.72 147.991 1955.1 147.701C1953.48 147.354 1951.94 147.181 1950.5 147.181C1947.49 147.181 1945 147.846 1943.03 149.177C1941.12 150.45 1940.17 152.157 1940.17 154.298C1940.17 155.455 1940.49 156.555 1941.12 157.596C1941.76 158.638 1942.68 159.477 1943.9 160.113C1945.12 160.75 1946.56 161.068 1948.24 161.068C1949.98 161.068 1951.68 160.75 1953.36 160.113C1955.04 159.419 1956.4 158.58 1957.44 157.596Z" fill="black"/>
</svg>
